<?xml version="1.0" encoding="UTF-8"?>
<!-- Generator: Adobe Illustrator 26.5.0, SVG Export Plug-In . SVG Version: 6.00 Build 0)  -->
<svg xmlns="http://www.w3.org/2000/svg" xmlns:xlink="http://www.w3.org/1999/xlink" version="1.1" id="Capa_1" x="0px" y="0px" viewBox="0 0 512 512" style="enable-background:new 0 0 512 512;" xml:space="preserve" width="50" height="50">
<g id="Blueprint">
	<path d="M470.502,0h-30.498c-6.075,0-11,4.925-11,11v49.996H41.498C18.616,60.996,0,79.612,0,102.493v368.009   C0,493.384,18.616,512,41.498,512h30.498c6.075,0,11-4.925,11-11v-19.498h387.506c22.882,0,41.498-18.616,41.498-41.498V41.498   C512,18.616,493.384,0,470.502,0z M451.004,22h19.498C481.253,22,490,30.747,490,41.498c0,10.751-8.747,19.498-19.498,19.498   h-19.498V22z M60.996,490H41.498C30.747,490,22,481.253,22,470.502V139.119c5.816,3.109,12.455,4.873,19.498,4.873h19.498V490z    M470.502,459.502H82.996v-326.51c0-6.075-4.925-11-11-11H41.498c-10.751,0-19.498-8.747-19.498-19.498   c0-10.751,8.747-19.497,19.498-19.497h398.506h30.498c7.044,0,13.681-1.77,19.498-4.879v361.887   C490,450.755,481.253,459.502,470.502,459.502z"/>
	<path style="fill:#33CCCC;" d="M440.004,121.992H132.992c-6.075,0-11,4.925-11,11v276.515c0,6.075,4.925,11,11,11h60.996   c6.075,0,11-4.925,11-11c0-6.075-4.925-11-11-11h-49.996V267h19.498c6.075,0,11-4.925,11-11s-4.925-11-11-11h-19.498V143.992H245   L245.001,245h-20.516c-6.075,0-11,4.925-11,11s4.925,11,11,11h81.511v19.498c0,6.075,4.925,11,11,11s11-4.925,11-11V256   c0-6.075-4.925-11-11-11h-49.995L267,143.992h162.004V245h-51.012c-6.075,0-11,4.925-11,11s4.925,11,11,11h51.012v131.506H327.996   v-51.013c0-6.075-4.925-11-11-11s-11,4.925-11,11v51.013H256c-6.075,0-11,4.925-11,11c0,6.075,4.925,11,11,11h184.004   c6.075,0,11-4.925,11-11V132.992C451.004,126.916,446.079,121.992,440.004,121.992z"/>
</g>















</svg>
