<?xml version="1.0" encoding="UTF-8"?>
<!-- Generator: Adobe Illustrator 26.4.1, SVG Export Plug-In . SVG Version: 6.00 Build 0)  -->
<svg xmlns="http://www.w3.org/2000/svg" xmlns:xlink="http://www.w3.org/1999/xlink" version="1.1" id="Capa_1" x="0px" y="0px" viewBox="0 0 511.959 511.959" style="enable-background:new 0 0 511.959 511.959;" xml:space="preserve" width="50" height="50">
<g>
	<path d="M443.021,88.354c-44.477-44.8-103.617-69.473-166.527-69.473c-62.911,0-122.051,24.673-166.528,69.473   C65.51,133.133,41.027,192.663,41.027,255.98c0,37.18,8.767,74.09,25.341,107.046c-7.856,31.517-29.969,57.778-59.786,70.717   c-6.686,2.707-8.788,11.988-3.923,17.311c19.471,22.386,47.579,35.225,77.117,35.225c26.954,0,52.551-10.611,71.625-29.395   c37.457,23.707,80.499,36.194,125.091,36.194c62.91,0,122.051-24.673,166.527-69.473c44.456-44.779,68.939-104.31,68.939-167.626   S487.477,133.133,443.021,88.354z M276.493,471.078c-43.302,0-84.992-12.989-120.561-37.563l-0.001,0.002   c-4.62-3.2-10.999-2.411-14.679,1.979c-15.338,18.291-37.745,28.782-61.475,28.782c-18.348,0-35.995-6.328-50.14-17.69   c30.118-17.949,51.773-47.907,59.12-82.735c0.58-2.752,0.067-5.474-1.231-7.735c-16.025-30.642-24.499-65.257-24.499-100.139   c0-118.605,95.761-215.099,213.466-215.099c117.705,0,213.466,96.493,213.466,215.099S394.198,471.078,276.493,471.078z"/>
	<path style="fill:#33CCCC;" d="M273.951,290.657c-6.075,0-11-4.925-11-11v-18.314c0-11.034,7.946-20.696,18.895-22.977   c18.421-3.834,31.271-20.312,30.554-39.178c-0.759-19.998-17.021-36.225-37.022-36.941c-15.132-0.55-29.256,7.878-35.956,21.451   c-2.689,5.447-9.286,7.684-14.732,4.996c-5.448-2.688-7.685-9.284-4.996-14.732c10.525-21.326,32.709-34.532,56.473-33.701   c31.452,1.128,57.024,26.646,58.218,58.093c1.126,29.634-19.084,55.52-48.054,61.552c-0.664,0.138-1.379,0.646-1.379,1.438v18.314   C284.951,285.732,280.026,290.657,273.951,290.657z"/>
	<path style="fill:#33CCCC;" d="M273.97,372.732c-6.075,0-11-4.925-11-11v-14.657c0-6.075,4.925-11,11-11s11,4.925,11,11v14.657   C284.97,367.808,280.045,372.732,273.97,372.732z"/>
</g>
</svg>
